<?xml version="1.0" encoding="UTF-8" standalone="no"?>
<svg
   width="246.13777"
   height="186.07056"
   version="1.1"
   id="svg574"
   sodipodi:docname="NostraCity map Default.svg"
   inkscape:version="1.1.1 (3bf5ae0d25, 2021-09-20)"
   xmlns:inkscape="http://www.inkscape.org/namespaces/inkscape"
   xmlns:sodipodi="http://sodipodi.sourceforge.net/DTD/sodipodi-0.dtd"
   xmlns="http://www.w3.org/2000/svg"
   xmlns:svg="http://www.w3.org/2000/svg">
  <defs
     id="defs578" />
  <sodipodi:namedview
     id="namedview576"
     pagecolor="#ffffff"
     bordercolor="#666666"
     borderopacity="1.0"
     inkscape:pageshadow="2"
     inkscape:pageopacity="0.0"
     inkscape:pagecheckerboard="0"
     showgrid="false"
     fit-margin-top="0"
     fit-margin-left="0"
     fit-margin-right="0"
     fit-margin-bottom="0"
     inkscape:zoom="3.3072859"
     inkscape:cx="129.86479"
     inkscape:cy="79.672581"
     inkscape:window-width="1366"
     inkscape:window-height="697"
     inkscape:window-x="-8"
     inkscape:window-y="-8"
     inkscape:window-maximized="1"
     inkscape:current-layer="svg574" />
  <style
     id="style2"><![CDATA[@import url("https://fonts.googleapis.com/css?family=IM+Fell+Great+Primer");]]></style>
  <rect
     x="0"
     y="0"
     width="246.13777"
     height="186.07056"
     id="background"
     fill="#ccc5b8"
     style="fill:#cdc5b8;fill-opacity:1;fill-rule:nonzero;stroke-width:2.0964" />
  <g
     id="map"
     transform="translate(110.48478,91.829556)">
    <g
       fill="none"
       id="g9">
      <polyline
         points="16.375,6.479 22.317,18.165 27.299,36.537 32.146,39.512 34.737,40.894 36.688,41.676 38.537,42.187 40.284,42.429 42.11,42.51 44.013,42.432 45.994,42.193 48.052,41.795 50.11,41.574 52.168,41.531 54.225,41.666 56.281,41.978 58.336,42.468 60.391,43.135 62.445,43.98 64.498,45.003 66.439,46.256 68.267,47.738 69.983,49.45 71.586,51.391 73.077,53.562 74.455,55.963 75.72,58.594 76.873,61.454 78.211,64.007 79.733,66.252 81.439,68.189 83.33,69.819 85.733,71.192 88.65,72.307 93.065,73.314 101.937,74.663"
         stroke="#67635c"
         stroke-width="2.068"
         stroke-linejoin="round"
         stroke-linecap="butt"
         id="polyline5" />
      <polyline
         points="3.887,3.322 16.375,6.479 22.317,18.165 27.299,36.537 32.146,39.512 34.737,40.894 36.688,41.676 38.537,42.187 40.284,42.429 42.11,42.51 44.013,42.432 45.994,42.193 48.052,41.795 50.11,41.574 52.168,41.531 54.225,41.666 56.281,41.978 58.336,42.468 60.391,43.135 62.445,43.98 64.498,45.003 66.439,46.256 68.267,47.738 69.983,49.45 71.586,51.391 73.077,53.562 74.455,55.963 75.72,58.594 76.873,61.454 78.211,64.007 79.733,66.252 81.439,68.189 83.33,69.819 85.733,71.192 88.65,72.307 93.065,73.314 101.937,74.663"
         stroke="#ccc5b8"
         stroke-width="1.932"
         stroke-linejoin="round"
         stroke-linecap="round"
         id="polyline7" />
    </g>
    <g
       fill="none"
       id="g15">
      <polyline
         points="-6.952,15.836 -17.684,14.175 -28.091,4.603 -34.175,4.653 -37.296,4.896 -39.481,5.347 -41.407,6.014 -43.073,6.894 -44.704,7.992 -46.302,9.306 -47.865,10.836 -49.394,12.583 -51.037,14.202 -52.795,15.694 -54.667,17.058 -56.654,18.294 -58.755,19.402 -60.97,20.383 -63.3,21.236 -65.745,21.961 -68.189,22.808 -70.632,23.777 -73.074,24.867 -75.515,26.08 -77.956,27.414 -80.396,28.869 -82.835,30.447 -85.273,32.146 -87.397,33.953 -89.206,35.867 -90.7,37.889 -91.879,40.018 -92.743,42.255 -93.293,44.6 -93.528,47.053 -93.448,49.612 -93.804,52.41 -94.597,55.444 -95.826,58.716 -97.491,62.226 -100.019,66.53 -103.41,71.628 -108.942,79.194 -120.453,94.241"
         stroke="#67635c"
         stroke-width="2.068"
         stroke-linejoin="round"
         stroke-linecap="butt"
         id="polyline11" />
      <polyline
         points="0.989,5.017 -6.952,15.836 -17.684,14.175 -28.091,4.603 -34.175,4.653 -37.296,4.896 -39.481,5.347 -41.407,6.014 -43.073,6.894 -44.704,7.992 -46.302,9.306 -47.865,10.836 -49.394,12.583 -51.037,14.202 -52.795,15.694 -54.667,17.058 -56.654,18.294 -58.755,19.402 -60.97,20.383 -63.3,21.236 -65.745,21.961 -68.189,22.808 -70.632,23.777 -73.074,24.867 -75.515,26.08 -77.956,27.414 -80.396,28.869 -82.835,30.447 -85.273,32.146 -87.397,33.953 -89.206,35.867 -90.7,37.889 -91.879,40.018 -92.743,42.255 -93.293,44.6 -93.528,47.053 -93.448,49.612 -93.804,52.41 -94.597,55.444 -95.826,58.716 -97.491,62.226 -100.019,66.53 -103.41,71.628 -108.942,79.194 -120.453,94.241"
         stroke="#ccc5b8"
         stroke-width="1.932"
         stroke-linejoin="round"
         stroke-linecap="round"
         id="polyline13" />
    </g>
    <g
       fill="none"
       id="g55">
      <polyline
         points="-113.717,26.402 -114.065,22.773 -114.246,20.891 -114.375,19.547 -114.492,18.337 -114.595,17.262 -114.698,16.186 -114.802,15.111 -114.905,14.036 -115.008,12.96 -115.002,11.901 -114.886,10.858 -114.66,9.83 -114.325,8.819 -113.879,7.824 -113.325,6.845 -112.66,5.882 -111.886,4.935 -111.111,3.987 -110.337,3.04 -109.562,2.093 -108.788,1.146 -108.014,0.199 -107.239,-0.748 -106.465,-1.695 -105.691,-2.643 -104.904,-3.568 -104.106,-4.473 -103.297,-5.356 -102.475,-6.218 -101.641,-7.058 -100.796,-7.877 -99.939,-8.674 -99.07,-9.451 -98.201,-10.227 -97.332,-11.003 -96.463,-11.779 -95.594,-12.556 -94.725,-13.332 -93.856,-14.108 -92.987,-14.884 -92.118,-15.661 -91.238,-16.416 -90.345,-17.149 -89.441,-17.861 -88.524,-18.552 -87.596,-19.222 -86.656,-19.87 -85.705,-20.496 -84.741,-21.102 -83.777,-21.707 -82.814,-22.312 -81.85,-22.918 -80.887,-23.523 -79.923,-24.129 -78.96,-24.734 -77.996,-25.339 -77.032,-25.945 -76.145,-26.533 -75.333,-27.104 -74.596,-27.657 -73.936,-28.193 -73.351,-28.712 -72.843,-29.214 -72.41,-29.698 -72.052,-30.165 -71.695,-30.632 -71.338,-31.099 -70.981,-31.566 -70.624,-32.033 -70.266,-32.5 -69.909,-32.967 -69.552,-33.434 -69.195,-33.901 -68.814,-34.331 -68.409,-34.723 -67.98,-35.077 -67.527,-35.393 -67.05,-35.672 -66.55,-35.913 -66.025,-36.117 -65.477,-36.283 -64.928,-36.448 -64.38,-36.614 -63.832,-36.78 -63.283,-36.946 -62.735,-37.112 -62.187,-37.278 -61.638,-37.444 -61.09,-37.61 -60.518,-37.738 -59.922,-37.828 -59.302,-37.881 -58.658,-37.897 -57.99,-37.874 -57.298,-37.814 -56.583,-37.717 -55.843,-37.581 -55.104,-37.446 -54.364,-37.311 -53.625,-37.175 -52.885,-37.04 -52.146,-36.905 -51.406,-36.769 -50.667,-36.634 -49.927,-36.499 -49.199,-36.338 -48.483,-36.151 -47.778,-35.939 -47.085,-35.701 -46.403,-35.438 -45.733,-35.149 -45.075,-34.834 -44.428,-34.494 -43.781,-34.153 -43.135,-33.813 -42.488,-33.473 -41.841,-33.132 -41.194,-32.792 -40.547,-32.452 -39.9,-32.111 -39.254,-31.771 -38.62,-31.431 -38,-31.091 -37.394,-30.751 -36.8,-30.41 -36.22,-30.07 -35.654,-29.731 -35.101,-29.391 -34.561,-29.051 -34.021,-28.711 -33.481,-28.371 -32.942,-28.031 -32.402,-27.692 -31.862,-27.352 -31.322,-27.012 -30.783,-26.672 -30.243,-26.332 -29.733,-25.987 -29.253,-25.637 -28.804,-25.281 -28.384,-24.92 -27.995,-24.553 -27.635,-24.181 -27.306,-23.803 -27.006,-23.421 -26.707,-23.038 -26.408,-22.655 -26.108,-22.272 -25.809,-21.89 -25.472,-21.459 -25.098,-20.981 -24.574,-20.311 -23.563,-19.019 -23.003,-17.58 -22.712,-16.834 -22.504,-16.302 -22.317,-15.822 -22.151,-15.396 -21.964,-14.916 -21.757,-14.383 -21.466,-13.637 -20.905,-12.199 -20.396,-11.108 -20.133,-10.542 -19.944,-10.138 -19.774,-9.774 -19.624,-9.451 -19.473,-9.128 -19.322,-8.805 -19.171,-8.481 -19.02,-8.158 -18.855,-7.853 -18.674,-7.566 -18.479,-7.298 -18.27,-7.048 -18.045,-6.816 -17.806,-6.603 -17.552,-6.408 -17.283,-6.231 -17.014,-6.054 -16.745,-5.878 -16.477,-5.701 -16.208,-5.524 -15.939,-5.347 -15.67,-5.17 -15.401,-4.994 -15.133,-4.817 -14.856,-4.643 -14.57,-4.473 -14.277,-4.306 -13.976,-4.142 -13.666,-3.982 -13.348,-3.825 -13.023,-3.671 -12.689,-3.521 -12.354,-3.37 -12.02,-3.22 -11.686,-3.069 -11.352,-2.919 -11.018,-2.768 -10.684,-2.618 -10.35,-2.467 -10.016,-2.317 -9.689,-2.151 -9.368,-1.971 -9.054,-1.775 -8.746,-1.564 -8.445,-1.339 -8.15,-1.098 -7.862,-0.842 -7.581,-0.572 -7.3,-0.301 -7.019,-0.03 -6.737,0.24 -6.456,0.511 -6.175,0.782 -5.893,1.052 -5.612,1.323 -5.331,1.594 -5.043,1.85 -4.749,2.092 -4.448,2.319 -4.14,2.532 -3.826,2.73 -3.506,2.914 -3.179,3.083 -2.846,3.237 -2.512,3.392 -2.179,3.547 -1.845,3.702 -1.512,3.856 -1.137,4.03 -0.72,4.224 -0.136,4.494 0.989,5.017 1.6,4.659 1.917,4.474 2.144,4.342 2.347,4.222 2.528,4.117 2.732,3.997 2.959,3.865 3.275,3.68 3.887,3.322 3.984,2.086 4.034,1.444 4.07,0.986 4.102,0.574 4.131,0.207 4.163,-0.205 4.199,-0.663 4.249,-1.304 4.346,-2.541 4.086,-3.936 3.952,-4.66 3.856,-5.176 3.769,-5.641 3.692,-6.055 3.615,-6.468 3.538,-6.881 3.461,-7.295 3.384,-7.708 3.34,-8.093 3.327,-8.449 3.347,-8.777 3.399,-9.077 3.483,-9.348 3.6,-9.59 3.748,-9.804 3.929,-9.99 4.11,-10.175 4.291,-10.361 4.472,-10.546 4.653,-10.732 4.834,-10.917 5.015,-11.103 5.196,-11.289 5.377,-11.474 5.59,-11.631 5.836,-11.76 6.114,-11.86 6.423,-11.932 6.766,-11.975 7.14,-11.99 7.547,-11.976 7.986,-11.934 8.425,-11.892 8.863,-11.849 9.302,-11.807 9.741,-11.765 10.18,-11.723 10.619,-11.681 11.058,-11.638 11.497,-11.596 11.94,-11.54 12.388,-11.47 12.841,-11.386 13.298,-11.288 13.76,-11.176 14.227,-11.05 14.698,-10.91 15.173,-10.756 15.649,-10.602 16.124,-10.448 16.6,-10.294 17.076,-10.14 17.551,-9.986 18.027,-9.832 18.502,-9.678 18.978,-9.525 19.445,-9.388 19.903,-9.269 20.353,-9.167 20.793,-9.082 21.225,-9.015 21.649,-8.965 22.063,-8.932 22.469,-8.916 22.875,-8.901 23.281,-8.885 23.687,-8.87 24.093,-8.855 24.499,-8.839 24.905,-8.824 25.311,-8.808 25.717,-8.793 26.133,-8.803 26.557,-8.84 26.991,-8.903 27.434,-8.992 27.886,-9.108 28.347,-9.249 28.818,-9.417 29.298,-9.611 29.778,-9.804 30.258,-9.998 30.737,-10.192 31.217,-10.385 31.697,-10.579 32.177,-10.773 32.657,-10.967 33.137,-11.16 33.635,-11.363 34.15,-11.574 34.684,-11.795 35.236,-12.024 35.805,-12.262 36.393,-12.508 36.998,-12.764 37.621,-13.028 38.245,-13.293 38.868,-13.557 39.492,-13.822 40.115,-14.086 40.738,-14.35 41.362,-14.615 41.985,-14.879 42.608,-15.144 43.253,-15.427 43.92,-15.728 44.608,-16.048 45.318,-16.387 46.05,-16.744 46.803,-17.12 47.578,-17.514 48.374,-17.927 49.17,-18.34 49.967,-18.753 50.763,-19.165 51.56,-19.578 52.356,-19.991 53.153,-20.404 53.949,-20.817 54.745,-21.23 55.546,-21.652 56.349,-22.084 57.157,-22.526 57.968,-22.978 58.783,-23.44 59.602,-23.911 60.424,-24.392 61.25,-24.882 62.076,-25.373 62.902,-25.863 63.728,-26.354 64.554,-26.845 65.38,-27.335 66.206,-27.826 67.032,-28.316 67.858,-28.807 68.684,-29.248 69.511,-29.639 70.339,-29.981 71.167,-30.273 71.995,-30.515 72.824,-30.707 73.653,-30.85 74.483,-30.944 75.313,-31.037 76.143,-31.13 76.973,-31.223 77.803,-31.317 78.633,-31.41 79.462,-31.503 80.292,-31.596 81.122,-31.69 81.949,-31.724 82.772,-31.698 83.593,-31.613 84.41,-31.469 85.223,-31.265 86.034,-31.002 86.841,-30.68 87.646,-30.298 88.45,-29.916 89.254,-29.535 90.058,-29.153 90.862,-28.771 91.667,-28.389 92.471,-28.007 93.275,-27.626 94.079,-27.244 94.88,-26.803 95.678,-26.302 96.473,-25.742 97.264,-25.123 98.052,-24.444 98.837,-23.706 99.619,-22.909 100.397,-22.052 101.176,-21.195 101.954,-20.338 102.733,-19.481 103.511,-18.624 104.29,-17.768 105.068,-16.911 105.847,-16.054 106.625,-15.197 107.553,-14.503 108.629,-13.971 109.855,-13.602 111.23,-13.395 112.754,-13.35 114.427,-13.469 116.249,-13.749 118.22,-14.193 120.191,-14.636 122.163,-15.079 124.134,-15.522 126.105,-15.966 128.323,-16.464 130.786,-17.018 134.236,-17.794 140.889,-19.29"
         stroke="#1a1917"
         stroke-width="4.725"
         stroke-linejoin="round"
         stroke-linecap="butt"
         id="polyline17" />
      <polyline
         points="-113.717,26.402 -114.065,22.773 -114.246,20.891 -114.375,19.547 -114.492,18.337 -114.595,17.262 -114.698,16.186 -114.802,15.111 -114.905,14.036 -115.008,12.96 -115.002,11.901 -114.886,10.858 -114.66,9.83 -114.325,8.819 -113.879,7.824 -113.325,6.845 -112.66,5.882 -111.886,4.935 -111.111,3.987 -110.337,3.04 -109.562,2.093 -108.788,1.146 -108.014,0.199 -107.239,-0.748 -106.465,-1.695 -105.691,-2.643 -104.904,-3.568 -104.106,-4.473 -103.297,-5.356 -102.475,-6.218 -101.641,-7.058 -100.796,-7.877 -99.939,-8.674 -99.07,-9.451 -98.201,-10.227 -97.332,-11.003 -96.463,-11.779 -95.594,-12.556 -94.725,-13.332 -93.856,-14.108 -92.987,-14.884 -92.118,-15.661 -91.238,-16.416 -90.345,-17.149 -89.441,-17.861 -88.524,-18.552 -87.596,-19.222 -86.656,-19.87 -85.705,-20.496 -84.741,-21.102 -83.777,-21.707 -82.814,-22.312 -81.85,-22.918 -80.887,-23.523 -79.923,-24.129 -78.96,-24.734 -77.996,-25.339 -77.032,-25.945 -76.145,-26.533 -75.333,-27.104 -74.596,-27.657 -73.936,-28.193 -73.351,-28.712 -72.843,-29.214 -72.41,-29.698 -72.052,-30.165 -71.695,-30.632 -71.338,-31.099 -70.981,-31.566 -70.624,-32.033 -70.266,-32.5 -69.909,-32.967 -69.552,-33.434 -69.195,-33.901 -68.814,-34.331 -68.409,-34.723 -67.98,-35.077 -67.527,-35.393 -67.05,-35.672 -66.55,-35.913 -66.025,-36.117 -65.477,-36.283 -64.928,-36.448 -64.38,-36.614 -63.832,-36.78 -63.283,-36.946 -62.735,-37.112 -62.187,-37.278 -61.638,-37.444 -61.09,-37.61 -60.518,-37.738 -59.922,-37.828 -59.302,-37.881 -58.658,-37.897 -57.99,-37.874 -57.298,-37.814 -56.583,-37.717 -55.843,-37.581 -55.104,-37.446 -54.364,-37.311 -53.625,-37.175 -52.885,-37.04 -52.146,-36.905 -51.406,-36.769 -50.667,-36.634 -49.927,-36.499 -49.199,-36.338 -48.483,-36.151 -47.778,-35.939 -47.085,-35.701 -46.403,-35.438 -45.733,-35.149 -45.075,-34.834 -44.428,-34.494 -43.781,-34.153 -43.135,-33.813 -42.488,-33.473 -41.841,-33.132 -41.194,-32.792 -40.547,-32.452 -39.9,-32.111 -39.254,-31.771 -38.62,-31.431 -38,-31.091 -37.394,-30.751 -36.8,-30.41 -36.22,-30.07 -35.654,-29.731 -35.101,-29.391 -34.561,-29.051 -34.021,-28.711 -33.481,-28.371 -32.942,-28.031 -32.402,-27.692 -31.862,-27.352 -31.322,-27.012 -30.783,-26.672 -30.243,-26.332 -29.733,-25.987 -29.253,-25.637 -28.804,-25.281 -28.384,-24.92 -27.995,-24.553 -27.635,-24.181 -27.306,-23.803 -27.006,-23.421 -26.707,-23.038 -26.408,-22.655 -26.108,-22.272 -25.809,-21.89 -25.472,-21.459 -25.098,-20.981 -24.574,-20.311 -23.563,-19.019 -23.003,-17.58 -22.712,-16.834 -22.504,-16.302 -22.317,-15.822 -22.151,-15.396 -21.964,-14.916 -21.757,-14.383 -21.466,-13.637 -20.905,-12.199 -20.396,-11.108 -20.133,-10.542 -19.944,-10.138 -19.774,-9.774 -19.624,-9.451 -19.473,-9.128 -19.322,-8.805 -19.171,-8.481 -19.02,-8.158 -18.855,-7.853 -18.674,-7.566 -18.479,-7.298 -18.27,-7.048 -18.045,-6.816 -17.806,-6.603 -17.552,-6.408 -17.283,-6.231 -17.014,-6.054 -16.745,-5.878 -16.477,-5.701 -16.208,-5.524 -15.939,-5.347 -15.67,-5.17 -15.401,-4.994 -15.133,-4.817 -14.856,-4.643 -14.57,-4.473 -14.277,-4.306 -13.976,-4.142 -13.666,-3.982 -13.348,-3.825 -13.023,-3.671 -12.689,-3.521 -12.354,-3.37 -12.02,-3.22 -11.686,-3.069 -11.352,-2.919 -11.018,-2.768 -10.684,-2.618 -10.35,-2.467 -10.016,-2.317 -9.689,-2.151 -9.368,-1.971 -9.054,-1.775 -8.746,-1.564 -8.445,-1.339 -8.15,-1.098 -7.862,-0.842 -7.581,-0.572 -7.3,-0.301 -7.019,-0.03 -6.737,0.24 -6.456,0.511 -6.175,0.782 -5.893,1.052 -5.612,1.323 -5.331,1.594 -5.043,1.85 -4.749,2.092 -4.448,2.319 -4.14,2.532 -3.826,2.73 -3.506,2.914 -3.179,3.083 -2.846,3.237 -2.512,3.392 -2.179,3.547 -1.845,3.702 -1.512,3.856 -1.137,4.03 -0.72,4.224 -0.136,4.494 0.989,5.017 1.6,4.659 1.917,4.474 2.144,4.342 2.347,4.222 2.528,4.117 2.732,3.997 2.959,3.865 3.275,3.68 3.887,3.322 3.984,2.086 4.034,1.444 4.07,0.986 4.102,0.574 4.131,0.207 4.163,-0.205 4.199,-0.663 4.249,-1.304 4.346,-2.541 4.086,-3.936 3.952,-4.66 3.856,-5.176 3.769,-5.641 3.692,-6.055 3.615,-6.468 3.538,-6.881 3.461,-7.295 3.384,-7.708 3.34,-8.093 3.327,-8.449 3.347,-8.777 3.399,-9.077 3.483,-9.348 3.6,-9.59 3.748,-9.804 3.929,-9.99 4.11,-10.175 4.291,-10.361 4.472,-10.546 4.653,-10.732 4.834,-10.917 5.015,-11.103 5.196,-11.289 5.377,-11.474 5.59,-11.631 5.836,-11.76 6.114,-11.86 6.423,-11.932 6.766,-11.975 7.14,-11.99 7.547,-11.976 7.986,-11.934 8.425,-11.892 8.863,-11.849 9.302,-11.807 9.741,-11.765 10.18,-11.723 10.619,-11.681 11.058,-11.638 11.497,-11.596 11.94,-11.54 12.388,-11.47 12.841,-11.386 13.298,-11.288 13.76,-11.176 14.227,-11.05 14.698,-10.91 15.173,-10.756 15.649,-10.602 16.124,-10.448 16.6,-10.294 17.076,-10.14 17.551,-9.986 18.027,-9.832 18.502,-9.678 18.978,-9.525 19.445,-9.388 19.903,-9.269 20.353,-9.167 20.793,-9.082 21.225,-9.015 21.649,-8.965 22.063,-8.932 22.469,-8.916 22.875,-8.901 23.281,-8.885 23.687,-8.87 24.093,-8.855 24.499,-8.839 24.905,-8.824 25.311,-8.808 25.717,-8.793 26.133,-8.803 26.557,-8.84 26.991,-8.903 27.434,-8.992 27.886,-9.108 28.347,-9.249 28.818,-9.417 29.298,-9.611 29.778,-9.804 30.258,-9.998 30.737,-10.192 31.217,-10.385 31.697,-10.579 32.177,-10.773 32.657,-10.967 33.137,-11.16 33.635,-11.363 34.15,-11.574 34.684,-11.795 35.236,-12.024 35.805,-12.262 36.393,-12.508 36.998,-12.764 37.621,-13.028 38.245,-13.293 38.868,-13.557 39.492,-13.822 40.115,-14.086 40.738,-14.35 41.362,-14.615 41.985,-14.879 42.608,-15.144 43.253,-15.427 43.92,-15.728 44.608,-16.048 45.318,-16.387 46.05,-16.744 46.803,-17.12 47.578,-17.514 48.374,-17.927 49.17,-18.34 49.967,-18.753 50.763,-19.165 51.56,-19.578 52.356,-19.991 53.153,-20.404 53.949,-20.817 54.745,-21.23 55.546,-21.652 56.349,-22.084 57.157,-22.526 57.968,-22.978 58.783,-23.44 59.602,-23.911 60.424,-24.392 61.25,-24.882 62.076,-25.373 62.902,-25.863 63.728,-26.354 64.554,-26.845 65.38,-27.335 66.206,-27.826 67.032,-28.316 67.858,-28.807 68.684,-29.248 69.511,-29.639 70.339,-29.981 71.167,-30.273 71.995,-30.515 72.824,-30.707 73.653,-30.85 74.483,-30.944 75.313,-31.037 76.143,-31.13 76.973,-31.223 77.803,-31.317 78.633,-31.41 79.462,-31.503 80.292,-31.596 81.122,-31.69 81.949,-31.724 82.772,-31.698 83.593,-31.613 84.41,-31.469 85.223,-31.265 86.034,-31.002 86.841,-30.68 87.646,-30.298 88.45,-29.916 89.254,-29.535 90.058,-29.153 90.862,-28.771 91.667,-28.389 92.471,-28.007 93.275,-27.626 94.079,-27.244 94.88,-26.803 95.678,-26.302 96.473,-25.742 97.264,-25.123 98.052,-24.444 98.837,-23.706 99.619,-22.909 100.397,-22.052 101.176,-21.195 101.954,-20.338 102.733,-19.481 103.511,-18.624 104.29,-17.768 105.068,-16.911 105.847,-16.054 106.625,-15.197 107.553,-14.503 108.629,-13.971 109.855,-13.602 111.23,-13.395 112.754,-13.35 114.427,-13.469 116.249,-13.749 118.22,-14.193 120.191,-14.636 122.163,-15.079 124.134,-15.522 126.105,-15.966 128.323,-16.464 130.786,-17.018 134.236,-17.794 140.889,-19.29"
         stroke="#67635c"
         stroke-width="4.589"
         stroke-linejoin="round"
         stroke-linecap="round"
         id="polyline19" />
      <polyline
         points="-113.717,26.402 -114.065,22.773 -114.246,20.891 -114.375,19.547 -114.492,18.337 -114.595,17.262 -114.698,16.186 -114.802,15.111 -114.905,14.036 -115.008,12.96 -115.002,11.901 -114.886,10.858 -114.66,9.83 -114.325,8.819 -113.879,7.824 -113.325,6.845 -112.66,5.882 -111.886,4.935 -111.111,3.987 -110.337,3.04 -109.562,2.093 -108.788,1.146 -108.014,0.199 -107.239,-0.748 -106.465,-1.695 -105.691,-2.643 -104.904,-3.568 -104.106,-4.473 -103.297,-5.356 -102.475,-6.218 -101.641,-7.058 -100.796,-7.877 -99.939,-8.674 -99.07,-9.451 -98.201,-10.227 -97.332,-11.003 -96.463,-11.779 -95.594,-12.556 -94.725,-13.332 -93.856,-14.108 -92.987,-14.884 -92.118,-15.661 -91.238,-16.416 -90.345,-17.149 -89.441,-17.861 -88.524,-18.552 -87.596,-19.222 -86.656,-19.87 -85.705,-20.496 -84.741,-21.102 -83.777,-21.707 -82.814,-22.312 -81.85,-22.918 -80.887,-23.523 -79.923,-24.129 -78.96,-24.734 -77.996,-25.339 -77.032,-25.945 -76.145,-26.533 -75.333,-27.104 -74.596,-27.657 -73.936,-28.193 -73.351,-28.712 -72.843,-29.214 -72.41,-29.698 -72.052,-30.165 -71.695,-30.632 -71.338,-31.099 -70.981,-31.566 -70.624,-32.033 -70.266,-32.5 -69.909,-32.967 -69.552,-33.434 -69.195,-33.901 -68.814,-34.331 -68.409,-34.723 -67.98,-35.077 -67.527,-35.393 -67.05,-35.672 -66.55,-35.913 -66.025,-36.117 -65.477,-36.283 -64.928,-36.448 -64.38,-36.614 -63.832,-36.78 -63.283,-36.946 -62.735,-37.112 -62.187,-37.278 -61.638,-37.444 -61.09,-37.61 -60.518,-37.738 -59.922,-37.828 -59.302,-37.881 -58.658,-37.897 -57.99,-37.874 -57.298,-37.814 -56.583,-37.717 -55.843,-37.581 -55.104,-37.446 -54.364,-37.311 -53.625,-37.175 -52.885,-37.04 -52.146,-36.905 -51.406,-36.769 -50.667,-36.634 -49.927,-36.499 -49.199,-36.338 -48.483,-36.151 -47.778,-35.939 -47.085,-35.701 -46.403,-35.438 -45.733,-35.149 -45.075,-34.834 -44.428,-34.494 -43.781,-34.153 -43.135,-33.813 -42.488,-33.473 -41.841,-33.132 -41.194,-32.792 -40.547,-32.452 -39.9,-32.111 -39.254,-31.771 -38.62,-31.431 -38,-31.091 -37.394,-30.751 -36.8,-30.41 -36.22,-30.07 -35.654,-29.731 -35.101,-29.391 -34.561,-29.051 -34.021,-28.711 -33.481,-28.371 -32.942,-28.031 -32.402,-27.692 -31.862,-27.352 -31.322,-27.012 -30.783,-26.672 -30.243,-26.332 -29.733,-25.987 -29.253,-25.637 -28.804,-25.281 -28.384,-24.92 -27.995,-24.553 -27.635,-24.181 -27.306,-23.803 -27.006,-23.421 -26.707,-23.038 -26.408,-22.655 -26.108,-22.272 -25.809,-21.89 -25.472,-21.459 -25.098,-20.981 -24.574,-20.311 -23.563,-19.019 -23.003,-17.58 -22.712,-16.834 -22.504,-16.302 -22.317,-15.822 -22.151,-15.396 -21.964,-14.916 -21.757,-14.383 -21.466,-13.637 -20.905,-12.199 -20.396,-11.108 -20.133,-10.542 -19.944,-10.138 -19.774,-9.774 -19.624,-9.451 -19.473,-9.128 -19.322,-8.805 -19.171,-8.481 -19.02,-8.158 -18.855,-7.853 -18.674,-7.566 -18.479,-7.298 -18.27,-7.048 -18.045,-6.816 -17.806,-6.603 -17.552,-6.408 -17.283,-6.231 -17.014,-6.054 -16.745,-5.878 -16.477,-5.701 -16.208,-5.524 -15.939,-5.347 -15.67,-5.17 -15.401,-4.994 -15.133,-4.817 -14.856,-4.643 -14.57,-4.473 -14.277,-4.306 -13.976,-4.142 -13.666,-3.982 -13.348,-3.825 -13.023,-3.671 -12.689,-3.521 -12.354,-3.37 -12.02,-3.22 -11.686,-3.069 -11.352,-2.919 -11.018,-2.768 -10.684,-2.618 -10.35,-2.467 -10.016,-2.317 -9.689,-2.151 -9.368,-1.971 -9.054,-1.775 -8.746,-1.564 -8.445,-1.339 -8.15,-1.098 -7.862,-0.842 -7.581,-0.572 -7.3,-0.301 -7.019,-0.03 -6.737,0.24 -6.456,0.511 -6.175,0.782 -5.893,1.052 -5.612,1.323 -5.331,1.594 -5.043,1.85 -4.749,2.092 -4.448,2.319 -4.14,2.532 -3.826,2.73 -3.506,2.914 -3.179,3.083 -2.846,3.237 -2.512,3.392 -2.179,3.547 -1.845,3.702 -1.512,3.856 -1.137,4.03 -0.72,4.224 -0.136,4.494 0.989,5.017 1.6,4.659 1.917,4.474 2.144,4.342 2.347,4.222 2.528,4.117 2.732,3.997 2.959,3.865 3.275,3.68 3.887,3.322 3.984,2.086 4.034,1.444 4.07,0.986 4.102,0.574 4.131,0.207 4.163,-0.205 4.199,-0.663 4.249,-1.304 4.346,-2.541 4.086,-3.936 3.952,-4.66 3.856,-5.176 3.769,-5.641 3.692,-6.055 3.615,-6.468 3.538,-6.881 3.461,-7.295 3.384,-7.708 3.34,-8.093 3.327,-8.449 3.347,-8.777 3.399,-9.077 3.483,-9.348 3.6,-9.59 3.748,-9.804 3.929,-9.99 4.11,-10.175 4.291,-10.361 4.472,-10.546 4.653,-10.732 4.834,-10.917 5.015,-11.103 5.196,-11.289 5.377,-11.474 5.59,-11.631 5.836,-11.76 6.114,-11.86 6.423,-11.932 6.766,-11.975 7.14,-11.99 7.547,-11.976 7.986,-11.934 8.425,-11.892 8.863,-11.849 9.302,-11.807 9.741,-11.765 10.18,-11.723 10.619,-11.681 11.058,-11.638 11.497,-11.596 11.94,-11.54 12.388,-11.47 12.841,-11.386 13.298,-11.288 13.76,-11.176 14.227,-11.05 14.698,-10.91 15.173,-10.756 15.649,-10.602 16.124,-10.448 16.6,-10.294 17.076,-10.14 17.551,-9.986 18.027,-9.832 18.502,-9.678 18.978,-9.525 19.445,-9.388 19.903,-9.269 20.353,-9.167 20.793,-9.082 21.225,-9.015 21.649,-8.965 22.063,-8.932 22.469,-8.916 22.875,-8.901 23.281,-8.885 23.687,-8.87 24.093,-8.855 24.499,-8.839 24.905,-8.824 25.311,-8.808 25.717,-8.793 26.133,-8.803 26.557,-8.84 26.991,-8.903 27.434,-8.992 27.886,-9.108 28.347,-9.249 28.818,-9.417 29.298,-9.611 29.778,-9.804 30.258,-9.998 30.737,-10.192 31.217,-10.385 31.697,-10.579 32.177,-10.773 32.657,-10.967 33.137,-11.16 33.635,-11.363 34.15,-11.574 34.684,-11.795 35.236,-12.024 35.805,-12.262 36.393,-12.508 36.998,-12.764 37.621,-13.028 38.245,-13.293 38.868,-13.557 39.492,-13.822 40.115,-14.086 40.738,-14.35 41.362,-14.615 41.985,-14.879 42.608,-15.144 43.253,-15.427 43.92,-15.728 44.608,-16.048 45.318,-16.387 46.05,-16.744 46.803,-17.12 47.578,-17.514 48.374,-17.927 49.17,-18.34 49.967,-18.753 50.763,-19.165 51.56,-19.578 52.356,-19.991 53.153,-20.404 53.949,-20.817 54.745,-21.23 55.546,-21.652 56.349,-22.084 57.157,-22.526 57.968,-22.978 58.783,-23.44 59.602,-23.911 60.424,-24.392 61.25,-24.882 62.076,-25.373 62.902,-25.863 63.728,-26.354 64.554,-26.845 65.38,-27.335 66.206,-27.826 67.032,-28.316 67.858,-28.807 68.684,-29.248 69.511,-29.639 70.339,-29.981 71.167,-30.273 71.995,-30.515 72.824,-30.707 73.653,-30.85 74.483,-30.944 75.313,-31.037 76.143,-31.13 76.973,-31.223 77.803,-31.317 78.633,-31.41 79.462,-31.503 80.292,-31.596 81.122,-31.69 81.949,-31.724 82.772,-31.698 83.593,-31.613 84.41,-31.469 85.223,-31.265 86.034,-31.002 86.841,-30.68 87.646,-30.298 88.45,-29.916 89.254,-29.535 90.058,-29.153 90.862,-28.771 91.667,-28.389 92.471,-28.007 93.275,-27.626 94.079,-27.244 94.88,-26.803 95.678,-26.302 96.473,-25.742 97.264,-25.123 98.052,-24.444 98.837,-23.706 99.619,-22.909 100.397,-22.052 101.176,-21.195 101.954,-20.338 102.733,-19.481 103.511,-18.624 104.29,-17.768 105.068,-16.911 105.847,-16.054 106.625,-15.197 107.553,-14.503 108.629,-13.971 109.855,-13.602 111.23,-13.395 112.754,-13.35 114.427,-13.469 116.249,-13.749 118.22,-14.193 120.191,-14.636 122.163,-15.079 124.134,-15.522 126.105,-15.966 128.323,-16.464 130.786,-17.018 134.236,-17.794 140.889,-19.29"
         stroke="#1a1917"
         stroke-width="2.835"
         stroke-linejoin="round"
         stroke-linecap="butt"
         id="polyline21" />
      <polyline
         points="-113.717,26.402 -114.065,22.773 -114.246,20.891 -114.375,19.547 -114.492,18.337 -114.595,17.262 -114.698,16.186 -114.802,15.111 -114.905,14.036 -115.008,12.96 -115.002,11.901 -114.886,10.858 -114.66,9.83 -114.325,8.819 -113.879,7.824 -113.325,6.845 -112.66,5.882 -111.886,4.935 -111.111,3.987 -110.337,3.04 -109.562,2.093 -108.788,1.146 -108.014,0.199 -107.239,-0.748 -106.465,-1.695 -105.691,-2.643 -104.904,-3.568 -104.106,-4.473 -103.297,-5.356 -102.475,-6.218 -101.641,-7.058 -100.796,-7.877 -99.939,-8.674 -99.07,-9.451 -98.201,-10.227 -97.332,-11.003 -96.463,-11.779 -95.594,-12.556 -94.725,-13.332 -93.856,-14.108 -92.987,-14.884 -92.118,-15.661 -91.238,-16.416 -90.345,-17.149 -89.441,-17.861 -88.524,-18.552 -87.596,-19.222 -86.656,-19.87 -85.705,-20.496 -84.741,-21.102 -83.777,-21.707 -82.814,-22.312 -81.85,-22.918 -80.887,-23.523 -79.923,-24.129 -78.96,-24.734 -77.996,-25.339 -77.032,-25.945 -76.145,-26.533 -75.333,-27.104 -74.596,-27.657 -73.936,-28.193 -73.351,-28.712 -72.843,-29.214 -72.41,-29.698 -72.052,-30.165 -71.695,-30.632 -71.338,-31.099 -70.981,-31.566 -70.624,-32.033 -70.266,-32.5 -69.909,-32.967 -69.552,-33.434 -69.195,-33.901 -68.814,-34.331 -68.409,-34.723 -67.98,-35.077 -67.527,-35.393 -67.05,-35.672 -66.55,-35.913 -66.025,-36.117 -65.477,-36.283 -64.928,-36.448 -64.38,-36.614 -63.832,-36.78 -63.283,-36.946 -62.735,-37.112 -62.187,-37.278 -61.638,-37.444 -61.09,-37.61 -60.518,-37.738 -59.922,-37.828 -59.302,-37.881 -58.658,-37.897 -57.99,-37.874 -57.298,-37.814 -56.583,-37.717 -55.843,-37.581 -55.104,-37.446 -54.364,-37.311 -53.625,-37.175 -52.885,-37.04 -52.146,-36.905 -51.406,-36.769 -50.667,-36.634 -49.927,-36.499 -49.199,-36.338 -48.483,-36.151 -47.778,-35.939 -47.085,-35.701 -46.403,-35.438 -45.733,-35.149 -45.075,-34.834 -44.428,-34.494 -43.781,-34.153 -43.135,-33.813 -42.488,-33.473 -41.841,-33.132 -41.194,-32.792 -40.547,-32.452 -39.9,-32.111 -39.254,-31.771 -38.62,-31.431 -38,-31.091 -37.394,-30.751 -36.8,-30.41 -36.22,-30.07 -35.654,-29.731 -35.101,-29.391 -34.561,-29.051 -34.021,-28.711 -33.481,-28.371 -32.942,-28.031 -32.402,-27.692 -31.862,-27.352 -31.322,-27.012 -30.783,-26.672 -30.243,-26.332 -29.733,-25.987 -29.253,-25.637 -28.804,-25.281 -28.384,-24.92 -27.995,-24.553 -27.635,-24.181 -27.306,-23.803 -27.006,-23.421 -26.707,-23.038 -26.408,-22.655 -26.108,-22.272 -25.809,-21.89 -25.472,-21.459 -25.098,-20.981 -24.574,-20.311 -23.563,-19.019 -23.003,-17.58 -22.712,-16.834 -22.504,-16.302 -22.317,-15.822 -22.151,-15.396 -21.964,-14.916 -21.757,-14.383 -21.466,-13.637 -20.905,-12.199 -20.396,-11.108 -20.133,-10.542 -19.944,-10.138 -19.774,-9.774 -19.624,-9.451 -19.473,-9.128 -19.322,-8.805 -19.171,-8.481 -19.02,-8.158 -18.855,-7.853 -18.674,-7.566 -18.479,-7.298 -18.27,-7.048 -18.045,-6.816 -17.806,-6.603 -17.552,-6.408 -17.283,-6.231 -17.014,-6.054 -16.745,-5.878 -16.477,-5.701 -16.208,-5.524 -15.939,-5.347 -15.67,-5.17 -15.401,-4.994 -15.133,-4.817 -14.856,-4.643 -14.57,-4.473 -14.277,-4.306 -13.976,-4.142 -13.666,-3.982 -13.348,-3.825 -13.023,-3.671 -12.689,-3.521 -12.354,-3.37 -12.02,-3.22 -11.686,-3.069 -11.352,-2.919 -11.018,-2.768 -10.684,-2.618 -10.35,-2.467 -10.016,-2.317 -9.689,-2.151 -9.368,-1.971 -9.054,-1.775 -8.746,-1.564 -8.445,-1.339 -8.15,-1.098 -7.862,-0.842 -7.581,-0.572 -7.3,-0.301 -7.019,-0.03 -6.737,0.24 -6.456,0.511 -6.175,0.782 -5.893,1.052 -5.612,1.323 -5.331,1.594 -5.043,1.85 -4.749,2.092 -4.448,2.319 -4.14,2.532 -3.826,2.73 -3.506,2.914 -3.179,3.083 -2.846,3.237 -2.512,3.392 -2.179,3.547 -1.845,3.702 -1.512,3.856 -1.137,4.03 -0.72,4.224 -0.136,4.494 0.989,5.017 1.6,4.659 1.917,4.474 2.144,4.342 2.347,4.222 2.528,4.117 2.732,3.997 2.959,3.865 3.275,3.68 3.887,3.322 3.984,2.086 4.034,1.444 4.07,0.986 4.102,0.574 4.131,0.207 4.163,-0.205 4.199,-0.663 4.249,-1.304 4.346,-2.541 4.086,-3.936 3.952,-4.66 3.856,-5.176 3.769,-5.641 3.692,-6.055 3.615,-6.468 3.538,-6.881 3.461,-7.295 3.384,-7.708 3.34,-8.093 3.327,-8.449 3.347,-8.777 3.399,-9.077 3.483,-9.348 3.6,-9.59 3.748,-9.804 3.929,-9.99 4.11,-10.175 4.291,-10.361 4.472,-10.546 4.653,-10.732 4.834,-10.917 5.015,-11.103 5.196,-11.289 5.377,-11.474 5.59,-11.631 5.836,-11.76 6.114,-11.86 6.423,-11.932 6.766,-11.975 7.14,-11.99 7.547,-11.976 7.986,-11.934 8.425,-11.892 8.863,-11.849 9.302,-11.807 9.741,-11.765 10.18,-11.723 10.619,-11.681 11.058,-11.638 11.497,-11.596 11.94,-11.54 12.388,-11.47 12.841,-11.386 13.298,-11.288 13.76,-11.176 14.227,-11.05 14.698,-10.91 15.173,-10.756 15.649,-10.602 16.124,-10.448 16.6,-10.294 17.076,-10.14 17.551,-9.986 18.027,-9.832 18.502,-9.678 18.978,-9.525 19.445,-9.388 19.903,-9.269 20.353,-9.167 20.793,-9.082 21.225,-9.015 21.649,-8.965 22.063,-8.932 22.469,-8.916 22.875,-8.901 23.281,-8.885 23.687,-8.87 24.093,-8.855 24.499,-8.839 24.905,-8.824 25.311,-8.808 25.717,-8.793 26.133,-8.803 26.557,-8.84 26.991,-8.903 27.434,-8.992 27.886,-9.108 28.347,-9.249 28.818,-9.417 29.298,-9.611 29.778,-9.804 30.258,-9.998 30.737,-10.192 31.217,-10.385 31.697,-10.579 32.177,-10.773 32.657,-10.967 33.137,-11.16 33.635,-11.363 34.15,-11.574 34.684,-11.795 35.236,-12.024 35.805,-12.262 36.393,-12.508 36.998,-12.764 37.621,-13.028 38.245,-13.293 38.868,-13.557 39.492,-13.822 40.115,-14.086 40.738,-14.35 41.362,-14.615 41.985,-14.879 42.608,-15.144 43.253,-15.427 43.92,-15.728 44.608,-16.048 45.318,-16.387 46.05,-16.744 46.803,-17.12 47.578,-17.514 48.374,-17.927 49.17,-18.34 49.967,-18.753 50.763,-19.165 51.56,-19.578 52.356,-19.991 53.153,-20.404 53.949,-20.817 54.745,-21.23 55.546,-21.652 56.349,-22.084 57.157,-22.526 57.968,-22.978 58.783,-23.44 59.602,-23.911 60.424,-24.392 61.25,-24.882 62.076,-25.373 62.902,-25.863 63.728,-26.354 64.554,-26.845 65.38,-27.335 66.206,-27.826 67.032,-28.316 67.858,-28.807 68.684,-29.248 69.511,-29.639 70.339,-29.981 71.167,-30.273 71.995,-30.515 72.824,-30.707 73.653,-30.85 74.483,-30.944 75.313,-31.037 76.143,-31.13 76.973,-31.223 77.803,-31.317 78.633,-31.41 79.462,-31.503 80.292,-31.596 81.122,-31.69 81.949,-31.724 82.772,-31.698 83.593,-31.613 84.41,-31.469 85.223,-31.265 86.034,-31.002 86.841,-30.68 87.646,-30.298 88.45,-29.916 89.254,-29.535 90.058,-29.153 90.862,-28.771 91.667,-28.389 92.471,-28.007 93.275,-27.626 94.079,-27.244 94.88,-26.803 95.678,-26.302 96.473,-25.742 97.264,-25.123 98.052,-24.444 98.837,-23.706 99.619,-22.909 100.397,-22.052 101.176,-21.195 101.954,-20.338 102.733,-19.481 103.511,-18.624 104.29,-17.768 105.068,-16.911 105.847,-16.054 106.625,-15.197 107.553,-14.503 108.629,-13.971 109.855,-13.602 111.23,-13.395 112.754,-13.35 114.427,-13.469 116.249,-13.749 118.22,-14.193 120.191,-14.636 122.163,-15.079 124.134,-15.522 126.105,-15.966 128.323,-16.464 130.786,-17.018 134.236,-17.794 140.889,-19.29"
         stroke="#67635c"
         stroke-width="2.767"
         stroke-linejoin="round"
         stroke-linecap="round"
         id="polyline23" />
      <g
         fill="none"
         id="g29">
        <line
           x1="6.5650001"
           y1="3.9990001"
           x2="1.362"
           y2="2.201"
           stroke="#1a1917"
           stroke-width="2.068"
           stroke-linejoin="round"
           stroke-linecap="butt"
           id="line25" />
        <line
           x1="6.5650001"
           y1="3.9990001"
           x2="1.362"
           y2="2.201"
           stroke="#ccc5b8"
           stroke-width="1.932"
           stroke-linejoin="round"
           stroke-linecap="round"
           id="line27" />
      </g>
      <g
         fill="none"
         id="g35">
        <line
           x1="-0.64499998"
           y1="7.244"
           x2="1.25"
           y2="2.266"
           stroke="#1a1917"
           stroke-width="2.068"
           stroke-linejoin="round"
           stroke-linecap="butt"
           id="line31" />
        <line
           x1="-0.64499998"
           y1="7.244"
           x2="1.25"
           y2="2.266"
           stroke="#ccc5b8"
           stroke-width="1.932"
           stroke-linejoin="round"
           stroke-linecap="round"
           id="line33" />
      </g>
      <g
         fill="none"
         id="g41">
        <line
           x1="-21.169001"
           y1="-20.396999"
           x2="-25.958"
           y2="-17.641001"
           stroke="#1a1917"
           stroke-width="0.868"
           stroke-linejoin="round"
           stroke-linecap="butt"
           id="line37" />
        <line
           x1="-21.169001"
           y1="-20.396999"
           x2="-25.958"
           y2="-17.641001"
           stroke="#ccc5b8"
           stroke-width="0.732"
           stroke-linejoin="round"
           stroke-linecap="round"
           id="line39" />
      </g>
      <g
         fill="none"
         id="g47">
        <line
           x1="1.589"
           y1="-2.3710001"
           x2="7.1030002"
           y2="-2.7119999"
           stroke="#1a1917"
           stroke-width="0.868"
           stroke-linejoin="round"
           stroke-linecap="butt"
           id="line43" />
        <line
           x1="1.589"
           y1="-2.3710001"
           x2="7.1030002"
           y2="-2.7119999"
           stroke="#ccc5b8"
           stroke-width="0.732"
           stroke-linejoin="round"
           stroke-linecap="round"
           id="line45" />
      </g>
      <g
         fill="none"
         id="g53">
        <line
           x1="-18.361"
           y1="-13.275"
           x2="-23.450001"
           y2="-11.123"
           stroke="#1a1917"
           stroke-width="0.868"
           stroke-linejoin="round"
           stroke-linecap="butt"
           id="line49" />
        <line
           x1="-18.361"
           y1="-13.275"
           x2="-23.450001"
           y2="-11.123"
           stroke="#ccc5b8"
           stroke-width="0.732"
           stroke-linejoin="round"
           stroke-linecap="round"
           id="line51" />
      </g>
    </g>
    <g
       fill="#99948a"
       stroke="#1a1917"
       stroke-width="0.068"
       id="g59">
      <polygon
         points="-1.789,-2.226 -2.82,-3.901 -1.801,-4.528 -0.77,-2.853 "
         id="polygon57" />
    </g>
    <g
       fill="#99948a"
       stroke="#1a1917"
       stroke-width="0.068"
       id="g71">
      <g
         fill="#1a1917"
         stroke="#1a1917"
         stroke-width="0.068"
         stroke-linejoin="round"
         id="g67">
        <polygon
           points="16.253,4.617 16.253,5.417 13.311,4.673 13.311,3.873 "
           id="polygon61" />
        <polygon
           points="9.967,3.828 7.077,3.097 7.077,2.297 9.967,3.028 11.036,-1.199 11.913,-4.671 15.257,-3.826 15.257,-3.026 11.913,-3.871 11.036,-0.399 "
           id="polygon63" />
        <polygon
           points="16.253,5.417 16.253,4.617 17.321,0.39 18.199,-3.082 19.174,-6.937 19.174,-6.137 18.199,-2.282 17.321,1.19 "
           id="polygon65" />
      </g>
      <polygon
         points="15.257,-3.826 11.913,-4.671 11.036,-1.199 9.967,3.028 7.077,2.297 8.145,-1.929 9.023,-5.401 9.997,-9.257 12.888,-8.526 16.231,-7.681 19.174,-6.937 18.199,-3.082 17.321,0.39 16.253,4.617 13.311,3.873 14.379,-0.353 "
         id="polygon69" />
    </g>
    <g
       fill="#99948a"
       stroke="#1a1917"
       stroke-width="0.068"
       id="g103">
      <g
         fill="#1a1917"
         stroke="#1a1917"
         stroke-width="0.068"
         stroke-linejoin="round"
         id="g89">
        <polygon
           points="-9.044,-5.347 -9.044,-5.747 -6.695,-4.689 -5.074,-5.687 -3.284,-7.522 -3.284,-7.122 -5.074,-5.287 -6.695,-4.289 "
           id="polygon73" />
        <polygon
           points="-7.717,-9.929 -7.717,-10.329 -6.04,-10.21 -1.4,-12.846 -1.18,-13.79 -1.18,-13.39 -1.4,-12.446 -6.04,-9.81 "
           id="polygon75" />
        <polygon
           points="-14.335,-8.477 -12.664,-7.378 -9.044,-5.747 -9.044,-5.347 -12.664,-6.978 -14.335,-8.077 "
           id="polygon77" />
        <polygon
           points="-8.051,-10.203 -8.051,-9.803 -9.044,-5.347 -9.044,-5.747 "
           id="polygon79" />
        <polygon
           points="-6.04,-10.21 -3.284,-7.522 0.295,-11.193 0.295,-10.793 -3.284,-7.122 -6.04,-9.81 "
           id="polygon81" />
        <polygon
           points="-1.4,-12.846 0.295,-11.193 2.085,-13.028 2.085,-12.628 0.295,-10.793 -1.4,-12.446 "
           id="polygon83" />
        <polygon
           points="-18.825,-15.97 -18.825,-15.57 -19.654,-17.697 -19.654,-18.097 "
           id="polygon85" />
        <polygon
           points="-18.825,-15.97 -17.064,-16.656 -16.879,-17.45 -16.879,-17.05 -17.064,-16.256 -18.825,-15.57 "
           id="polygon87" />
      </g>
      <polygon
         points="-6.04,-10.21 -3.284,-7.522 -5.074,-5.687 -6.695,-4.689 -9.044,-5.747 -8.149,-9.761 -8.07,-9.81 -7.574,-10.318 "
         id="polygon91" />
      <polygon
         points="-6.04,-10.21 -7.717,-10.329 -6.615,-15.057 -1.18,-13.79 -1.4,-12.846 "
         id="polygon93" />
      <polygon
         points="-11.976,-12.064 -8.051,-10.203 -9.044,-5.747 -12.664,-7.378 -14.335,-8.477 "
         id="polygon95" />
      <polygon
         points="-1.4,-12.846 0.295,-11.193 -3.284,-7.522 -6.04,-10.21 "
         id="polygon97" />
      <polygon
         points="-1.4,-12.846 -1.18,-13.79 2.085,-13.028 0.295,-11.193 "
         id="polygon99" />
      <polygon
         points="-17.064,-16.656 -18.825,-15.97 -19.654,-18.097 -16.879,-17.45 "
         id="polygon101" />
    </g>
    <g
       fill="#99948a"
       stroke="#1a1917"
       stroke-width="0.068"
       id="g161">
      <g
         fill="#1a1917"
         stroke="#1a1917"
         stroke-width="0.068"
         stroke-linejoin="round"
         id="g137">
        <polygon
           points="-19.625,-0.34 -19.625,-0.74 -19.41,0.581 -15.112,3.408 -15.037,3.442 -15.037,3.842 -15.112,3.808 -19.41,0.981 "
           id="polygon105" />
        <polygon
           points="-13.183,-0.675 -13.183,-0.275 -15.037,3.842 -15.037,3.442 "
           id="polygon107" />
        <polygon
           points="-19.712,10.55 -19.712,10.95 -24.677,6.384 -24.677,5.984 "
           id="polygon109" />
        <polygon
           points="-15.407,5.868 -15.407,6.268 -19.712,10.95 -19.712,10.55 "
           id="polygon111" />
        <polygon
           points="-15.302,4.03 -14.01,4.612 -12.089,6.46 -12.089,6.86 -14.01,5.012 -15.302,4.43 "
           id="polygon113" />
        <polygon
           points="-8.401,2.628 -8.401,3.028 -12.089,6.86 -12.089,6.46 "
           id="polygon115" />
        <polygon
           points="-19.712,10.95 -19.712,10.55 -17.23,12.833 -14.772,13.213 -13.973,8.05 -13.973,8.45 -14.772,13.613 -17.23,13.233 "
           id="polygon117" />
        <polygon
           points="-9.857,13.975 -9.857,14.375 -14.772,13.613 -14.772,13.213 "
           id="polygon119" />
        <polygon
           points="-9.254,10.083 -9.254,10.483 -9.857,14.375 -9.857,13.975 "
           id="polygon121" />
        <polygon
           points="-7.061,7.304 -7.061,7.704 -11.099,5.831 -11.099,5.431 "
           id="polygon123" />
        <polygon
           points="-7.808,8.321 -4.807,7.525 -4.001,5.788 -4.001,6.188 -4.807,7.925 -7.808,8.721 "
           id="polygon125" />
        <polygon
           points="-25.414,1.588 -22.696,3.831 -18.983,3.208 -18.983,3.608 -22.696,4.231 -25.414,1.988 "
           id="polygon127" />
        <polygon
           points="-21.926,-2.639 -19.625,-0.74 -17.951,-3.285 -17.951,-2.885 -19.625,-0.34 -21.926,-2.239 "
           id="polygon129" />
        <polygon
           points="-9.744,9.236 -9.744,8.836 -9.254,10.083 -6.01,12.464 -3.233,8.68 -3.233,9.08 -6.01,12.864 -9.254,10.483 "
           id="polygon131" />
        <polygon
           points="-9.857,13.975 -7.399,14.355 -6.01,12.464 -6.01,12.864 -7.399,14.755 -9.857,14.375 "
           id="polygon133" />
        <polygon
           points="-4.807,7.525 -3.233,8.68 -1.845,6.788 -1.845,7.188 -3.233,9.08 -4.807,7.925 "
           id="polygon135" />
      </g>
      <polygon
         points="-19.625,-0.74 -17.951,-3.285 -15.72,-1.818 -13.183,-0.675 -15.037,3.442 -15.112,3.408 -19.41,0.581 "
         id="polygon139" />
      <polygon
         points="-18.983,3.208 -15.841,5.225 -15.407,5.868 -19.712,10.55 -24.677,5.984 -22.696,3.831 "
         id="polygon141" />
      <polygon
         points="-13.183,-0.675 -10.645,0.469 -8.401,2.628 -12.089,6.46 -14.01,4.612 -15.302,4.03 "
         id="polygon143" />
      <polygon
         points="-14.772,13.213 -17.23,12.833 -19.712,10.55 -16.443,6.995 -15.565,7.803 -13.973,8.05 "
         id="polygon145" />
      <polygon
         points="-12.513,6.9 -9.744,8.836 -9.254,10.083 -9.857,13.975 -14.772,13.213 -13.77,6.74 "
         id="polygon147" />
      <polygon
         points="-8.401,2.628 -6.158,4.787 -4.001,5.788 -4.807,7.525 -7.808,8.321 -7.061,7.304 -11.099,5.431 "
         id="polygon149" />
      <polygon
         points="-18.983,3.208 -22.696,3.831 -25.414,1.588 -21.926,-2.639 -19.625,-0.74 "
         id="polygon151" />
      <polygon
         points="-19.625,-0.74 -21.926,-2.639 -20.181,-4.752 -17.951,-3.285 "
         id="polygon153" />
      <polygon
         points="-9.744,8.836 -4.807,7.525 -3.233,8.68 -6.01,12.464 -9.254,10.083 "
         id="polygon155" />
      <polygon
         points="-9.254,10.083 -6.01,12.464 -7.399,14.355 -9.857,13.975 "
         id="polygon157" />
      <polygon
         points="-4.807,7.525 -4.001,5.788 -1.845,6.788 -3.233,8.68 "
         id="polygon159" />
    </g>
    <g
       fill="#99948a"
       stroke="#1a1917"
       stroke-width="0.068"
       id="g227">
      <g
         fill="#1a1917"
         stroke="#1a1917"
         stroke-width="0.068"
         stroke-linejoin="round"
         id="g199">
        <polygon
           points="7.983,15.522 9.64,21.109 13.331,20.014 13.331,20.414 9.64,21.509 7.983,15.922 "
           id="polygon163" />
        <polygon
           points="0.597,8.91 0.597,8.51 4.281,14.812 7.437,13.682 8.144,13.223 8.144,13.623 7.437,14.082 4.281,15.212 "
           id="polygon165" />
        <polygon
           points="3.384,17.924 4.758,22.557 9.64,21.109 9.64,21.509 4.758,22.957 3.384,18.324 "
           id="polygon167" />
        <polygon
           points="8.144,13.623 7.769,11.334 7.769,10.934 8.144,13.223 11.101,13.216 12.065,12.164 13.524,6.39 13.524,6.79 12.065,12.564 11.101,13.616 "
           id="polygon169" />
        <polygon
           points="4.885,6.002 7.769,10.934 9.194,5.296 9.194,5.696 7.769,11.334 4.885,6.402 "
           id="polygon171" />
        <polygon
           points="13.331,20.014 13.331,20.414 11.386,13.859 11.386,13.459 "
           id="polygon173" />
        <polygon
           points="18.213,18.565 18.213,18.965 13.331,20.414 13.331,20.014 "
           id="polygon175" />
        <polygon
           points="18.213,18.565 18.213,18.965 17.501,16.567 17.501,16.167 "
           id="polygon177" />
        <polygon
           points="21.158,17.692 21.158,18.092 18.213,18.965 18.213,18.565 "
           id="polygon179" />
        <polygon
           points="11.101,13.616 11.101,13.216 11.386,13.459 17.501,16.167 19.79,15.003 19.79,15.403 17.501,16.567 11.386,13.859 "
           id="polygon181" />
        <polygon
           points="-3.773,13.195 -3.773,12.795 -1.097,14.759 0.796,14.881 2.759,12.207 2.759,12.607 0.796,15.281 -1.097,15.159 "
           id="polygon183" />
        <polygon
           points="13.258,11.557 13.258,11.957 12.564,10.591 12.564,10.191 "
           id="polygon185" />
        <polygon
           points="17.056,9.626 17.056,10.026 13.258,11.957 13.258,11.557 "
           id="polygon187" />
        <polygon
           points="-0.277,21.57 -0.277,21.97 -4.091,18.142 -4.091,17.742 "
           id="polygon189" />
        <polygon
           points="-0.277,21.57 3.384,17.924 3.94,15.083 3.94,15.483 3.384,18.324 -0.277,21.97 "
           id="polygon191" />
        <polygon
           points="-0.277,21.57 1.63,23.485 4.758,22.557 4.758,22.957 1.63,23.885 -0.277,21.97 "
           id="polygon193" />
        <polygon
           points="-4.091,17.742 -4.091,18.142 -5.998,16.227 -5.998,15.827 "
           id="polygon195" />
        <polygon
           points="-1.097,14.759 -1.097,15.159 -4.091,18.142 -4.091,17.742 "
           id="polygon197" />
      </g>
      <polygon
         points="9.64,21.109 7.983,15.522 11.674,14.427 13.331,20.014 "
         id="polygon201" />
      <polygon
         points="8.144,13.223 7.437,13.682 4.281,14.812 0.597,8.51 4.885,6.002 7.769,10.934 "
         id="polygon203" />
      <polygon
         points="4.758,22.557 3.384,17.924 3.441,17.629 8.19,16.221 9.64,21.109 "
         id="polygon205" />
      <polygon
         points="11.101,13.216 8.144,13.223 7.769,10.934 9.194,5.296 13.524,6.39 12.065,12.164 "
         id="polygon207" />
      <polygon
         points="7.769,10.934 4.885,6.002 7.029,4.748 9.194,5.296 "
         id="polygon209" />
      <polygon
         points="18.213,18.565 13.331,20.014 11.386,13.459 17.501,16.167 "
         id="polygon211" />
      <polygon
         points="21.158,17.692 18.213,18.565 17.501,16.167 19.79,15.003 "
         id="polygon213" />
      <polygon
         points="11.386,13.459 11.101,13.216 12.065,12.164 17.056,9.626 19.79,15.003 17.501,16.167 "
         id="polygon215" />
      <polygon
         points="-3.773,12.795 -1.548,9.763 0.597,8.51 2.759,12.207 0.796,14.881 -1.097,14.759 "
         id="polygon217" />
      <polygon
         points="15.689,6.937 17.056,9.626 13.258,11.557 12.564,10.191 13.524,6.39 "
         id="polygon219" />
      <polygon
         points="3.94,15.083 3.384,17.924 -0.277,21.57 -4.091,17.742 -1.097,14.759 "
         id="polygon221" />
      <polygon
         points="1.63,23.485 -0.277,21.57 2.748,18.557 3.921,19.735 4.758,22.557 "
         id="polygon223" />
      <polygon
         points="-1.097,14.759 -4.091,17.742 -5.998,15.827 -3.773,12.795 "
         id="polygon225" />
    </g>
    <g
       fill="#99948a"
       stroke="#1a1917"
       stroke-width="0.068"
       id="g241">
      <g
         fill="#1a1917"
         stroke="#1a1917"
         stroke-width="0.068"
         stroke-linejoin="round"
         id="g235">
        <polygon
           points="-0.024,-19.774 -0.024,-19.374 -0.327,-24.752 -0.327,-25.152 "
           id="polygon229" />
        <polygon
           points="-0.024,-19.774 0.658,-18.989 5.232,-19.246 5.232,-18.846 0.658,-18.589 -0.024,-19.374 "
           id="polygon231" />
        <polygon
           points="0.752,-18.78 3.976,-14.945 5.406,-16.147 5.406,-15.747 3.976,-14.545 0.752,-18.38 "
           id="polygon233" />
      </g>
      <polygon
         points="5.232,-19.246 0.658,-18.989 -0.024,-19.774 -0.327,-25.152 4.883,-25.445 "
         id="polygon237" />
      <polygon
         points="5.406,-16.147 3.976,-14.945 0.752,-18.78 1.024,-19.01 5.232,-19.246 "
         id="polygon239" />
    </g>
    <g
       fill="#99948a"
       stroke="#1a1917"
       stroke-width="0.068"
       id="g271">
      <g
         fill="#1a1917"
         stroke="#1a1917"
         stroke-width="0.068"
         stroke-linejoin="round"
         id="g255">
        <polygon
           points="20.116,-12.88 20.116,-12.48 15.559,-13.955 15.559,-14.355 "
           id="polygon243" />
        <polygon
           points="20.323,-13.762 20.323,-13.362 20.116,-12.48 20.116,-12.88 "
           id="polygon245" />
        <polygon
           points="16.538,-17.267 20.323,-13.762 21.508,-14.552 21.508,-14.152 20.323,-13.362 16.538,-16.867 "
           id="polygon247" />
        <polygon
           points="6.097,-18.108 6.234,-15.679 8.095,-15.5 8.095,-15.1 6.234,-15.279 6.097,-17.708 "
           id="polygon249" />
        <polygon
           points="8.358,-18.235 8.358,-17.835 8.095,-15.1 8.095,-15.5 "
           id="polygon251" />
        <polygon
           points="5.514,-28.465 5.643,-26.187 9.278,-26.391 9.278,-25.991 5.643,-25.787 5.514,-28.065 "
           id="polygon253" />
      </g>
      <polygon
         points="16.538,-17.267 20.323,-13.762 20.116,-12.88 15.559,-14.355 16.501,-17.267 "
         id="polygon257" />
      <polygon
         points="16.538,-17.267 18.727,-18.726 21.508,-14.552 20.323,-13.762 "
         id="polygon259" />
      <polygon
         points="8.358,-18.235 8.095,-15.5 6.234,-15.679 6.097,-18.108 "
         id="polygon261" />
      <polygon
         points="5.514,-28.465 8.387,-29.335 9.278,-26.391 5.643,-26.187 "
         id="polygon263" />
      <g
         fill="#1a1917"
         stroke="#1a1917"
         stroke-width="0.068"
         stroke-linejoin="round"
         id="g267">
        <polygon
           points="22.446,-14.187 22.446,-14.587 23.885,-12.427 26.582,-12.325 28.368,-13.046 28.368,-12.646 26.582,-11.925 23.885,-12.027 "
           id="polygon265" />
      </g>
      <polygon
         points="28.368,-13.046 26.582,-12.325 23.885,-12.427 22.446,-14.587 25.59,-16.682 25.686,-16.678 28.027,-14.326 "
         id="polygon269" />
    </g>
    <g
       fill="#99948a"
       stroke="#1a1917"
       stroke-width="0.068"
       id="g323">
      <g
         fill="#1a1917"
         stroke="#1a1917"
         stroke-width="0.068"
         stroke-linejoin="round"
         id="g299">
        <polygon
           points="24.968,13.219 25.891,16.264 30.325,14.92 30.325,15.32 25.891,16.664 24.968,13.619 "
           id="polygon273" />
        <polygon
           points="18.883,9.206 18.883,8.806 21.916,14.771 24.968,13.219 25.383,12.115 25.383,12.515 24.968,13.619 21.916,15.171 "
           id="polygon275" />
        <polygon
           points="37.368,-1.196 37.368,-0.796 30.865,0.951 30.865,0.551 "
           id="polygon277" />
        <polygon
           points="25.663,-1.947 28.069,-1.856 31.063,-3.065 31.063,-2.665 28.069,-1.456 25.663,-1.547 "
           id="polygon279" />
        <polygon
           points="29.588,-6.717 31.491,-2.005 34.309,-5.934 34.309,-5.534 31.491,-1.605 29.588,-6.317 "
           id="polygon281" />
        <polygon
           points="17.826,2.324 24.152,4.07 25.163,0.407 25.163,0.807 24.152,4.47 17.826,2.724 "
           id="polygon283" />
        <polygon
           points="22.043,3.488 22.043,3.888 21.675,5.223 21.675,4.823 "
           id="polygon285" />
        <polygon
           points="17.038,5.178 18.883,8.806 22.711,6.86 22.711,7.26 18.883,9.206 17.038,5.578 "
           id="polygon287" />
        <polygon
           points="21.933,-2.686 22.582,-2.064 25.663,-1.947 25.663,-1.547 22.582,-1.664 21.933,-2.286 "
           id="polygon289" />
        <polygon
           points="25.818,-6.024 25.818,-5.624 25.663,-1.547 25.663,-1.947 "
           id="polygon291" />
        <polygon
           points="21.916,14.771 23.105,17.108 25.891,16.264 25.891,16.664 23.105,17.508 21.916,15.171 "
           id="polygon293" />
        <polygon
           points="33.375,-8.246 34.309,-5.934 35.975,-6.381 35.975,-5.981 34.309,-5.534 33.375,-7.846 "
           id="polygon295" />
        <polygon
           points="19.401,-3.384 21.933,-2.686 22.065,-6.167 22.065,-5.767 21.933,-2.286 19.401,-2.984 "
           id="polygon297" />
      </g>
      <polygon
         points="27.647,6.085 30.325,14.92 25.891,16.264 24.968,13.219 "
         id="polygon301" />
      <polygon
         points="21.916,14.771 18.883,8.806 22.711,6.86 25.383,12.115 24.968,13.219 "
         id="polygon303" />
      <polygon
         points="34.309,-5.934 35.975,-6.381 37.368,-1.196 30.865,0.551 31.491,-2.005 "
         id="polygon305" />
      <polygon
         points="25.818,-6.024 27.695,-5.953 29.588,-6.717 31.063,-3.065 28.069,-1.856 25.663,-1.947 "
         id="polygon307" />
      <polygon
         points="31.491,-2.005 29.588,-6.717 33.375,-8.246 34.309,-5.934 "
         id="polygon309" />
      <polygon
         points="19.401,-3.384 21.933,-2.686 25.163,0.407 24.152,4.07 17.826,2.324 "
         id="polygon311" />
      <polygon
         points="18.883,8.806 17.038,5.178 17.826,2.324 22.043,3.488 21.675,4.823 22.711,6.86 "
         id="polygon313" />
      <polygon
         points="22.065,-6.167 25.818,-6.024 25.663,-1.947 22.582,-2.064 21.933,-2.686 "
         id="polygon315" />
      <polygon
         points="24.968,13.219 25.891,16.264 23.105,17.108 21.916,14.771 "
         id="polygon317" />
      <polygon
         points="34.309,-5.934 33.375,-8.246 35.269,-9.011 35.975,-6.381 "
         id="polygon319" />
      <polygon
         points="20.189,-6.238 22.065,-6.167 21.933,-2.686 19.401,-3.384 "
         id="polygon321" />
    </g>
    <g
       fill="#99948a"
       stroke="#1a1917"
       stroke-width="0.068"
       id="g367">
      <g
         fill="#1a1917"
         stroke="#1a1917"
         stroke-width="0.068"
         stroke-linejoin="round"
         id="g351">
        <polygon
           points="-6.703,28.157 -6.703,28.557 -10.487,24.758 -10.487,24.358 "
           id="polygon325" />
        <polygon
           points="-0.751,22.228 -0.751,22.628 -6.703,28.557 -6.703,28.157 "
           id="polygon327" />
        <polygon
           points="-4.152,25.616 -3.508,26.262 -3.197,28.215 -3.197,28.615 -3.508,26.662 -4.152,26.016 "
           id="polygon329" />
        <polygon
           points="1.668,27.44 1.668,27.84 -3.197,28.615 -3.197,28.215 "
           id="polygon331" />
        <polygon
           points="-0.261,38.821 -0.261,39.221 -0.863,35.442 -0.863,35.042 "
           id="polygon333" />
        <polygon
           points="-0.261,38.821 1.18,40.952 3.755,40.542 3.755,40.942 1.18,41.352 -0.261,39.221 "
           id="polygon335" />
        <polygon
           points="-23.203,24.115 -19.647,26.172 -16.308,20.398 -16.308,20.798 -19.647,26.572 -23.203,24.515 "
           id="polygon337" />
        <polygon
           points="-9.885,20.063 -9.885,20.463 -15.57,19.583 -15.57,19.183 "
           id="polygon339" />
        <polygon
           points="-9.27,16.089 -9.27,16.489 -9.885,20.463 -9.885,20.063 "
           id="polygon341" />
        <polygon
           points="-9.885,20.063 -7.644,20.41 -7.086,20.97 -7.086,21.37 -7.644,20.81 -9.885,20.463 "
           id="polygon343" />
        <polygon
           points="-4.535,18.429 -4.535,18.829 -7.086,21.37 -7.086,20.97 "
           id="polygon345" />
        <polygon
           points="-19.863,18.742 -19.863,18.342 -16.308,20.398 -15.602,19.178 -15.57,19.183 -15.57,19.583 -15.602,19.578 -16.308,20.798 "
           id="polygon347" />
        <polygon
           points="-14.954,15.209 -14.954,15.609 -15.57,19.583 -15.57,19.183 "
           id="polygon349" />
      </g>
      <polygon
         points="-0.751,22.228 -6.703,28.157 -10.487,24.358 -4.535,18.429 "
         id="polygon353" />
      <polygon
         points="-0.751,22.228 1.141,24.127 1.668,27.44 -3.197,28.215 -3.508,26.262 -4.152,25.616 "
         id="polygon355" />
      <polygon
         points="3.755,40.542 1.18,40.952 -0.261,38.821 -0.863,35.042 2.787,34.461 "
         id="polygon357" />
      <polygon
         points="-19.863,18.342 -16.308,20.398 -19.647,26.172 -23.203,24.115 "
         id="polygon359" />
      <polygon
         points="-9.27,16.089 -9.885,20.063 -15.57,19.183 -14.954,15.209 "
         id="polygon361" />
      <polygon
         points="-9.27,16.089 -6.427,16.53 -4.535,18.429 -7.086,20.97 -7.644,20.41 -9.885,20.063 "
         id="polygon363" />
      <polygon
         points="-19.863,18.342 -17.797,14.769 -14.954,15.209 -15.57,19.183 -15.602,19.178 -16.308,20.398 "
         id="polygon365" />
    </g>
    <g
       fill="#99948a"
       stroke="#1a1917"
       stroke-width="0.068"
       id="g425">
      <g
         fill="#1a1917"
         stroke="#1a1917"
         stroke-width="0.068"
         stroke-linejoin="round"
         id="g403">
        <polygon
           points="4.562,40.522 4.562,40.922 3.819,36.259 3.819,35.859 "
           id="polygon369" />
        <polygon
           points="4.562,40.522 7.692,40.023 9.447,34.963 9.447,35.363 7.692,40.423 4.562,40.922 "
           id="polygon371" />
        <polygon
           points="3.113,31.425 3.113,31.825 2.371,27.163 2.371,26.763 "
           id="polygon373" />
        <polygon
           points="11.051,30.161 11.051,30.561 3.113,31.825 3.113,31.425 "
           id="polygon375" />
        <polygon
           points="4.94,23.737 4.94,23.337 5.795,26.218 7.478,27.481 11.15,26.391 11.15,26.791 7.478,27.881 5.795,26.618 "
           id="polygon377" />
        <polygon
           points="18.149,30.793 18.149,31.193 17.181,27.625 17.181,27.225 "
           id="polygon379" />
        <polygon
           points="24.357,29.11 24.357,29.51 18.149,31.193 18.149,30.793 "
           id="polygon381" />
        <polygon
           points="2.371,26.763 2.371,27.163 1.966,24.62 1.966,24.22 "
           id="polygon383" />
        <polygon
           points="5.795,26.218 5.795,26.618 2.371,27.163 2.371,26.763 "
           id="polygon385" />
        <polygon
           points="13.599,20.769 14.667,24.368 18.637,23.191 18.637,23.591 14.667,24.768 13.599,21.169 "
           id="polygon387" />
        <polygon
           points="19.249,21.935 19.249,22.335 18.637,23.591 18.637,23.191 "
           id="polygon389" />
        <polygon
           points="21.087,33.437 21.087,33.837 20.218,30.632 20.218,30.232 "
           id="polygon391" />
        <polygon
           points="21.087,33.437 22.51,34.339 25.551,33.515 25.551,33.915 22.51,34.739 21.087,33.837 "
           id="polygon393" />
        <polygon
           points="18.216,26.944 18.216,27.344 17.712,25.487 17.712,25.087 "
           id="polygon395" />
        <polygon
           points="23.389,25.541 23.389,25.941 18.216,27.344 18.216,26.944 "
           id="polygon397" />
        <polygon
           points="22.51,34.339 23.354,36.979 26.24,36.056 26.24,36.456 23.354,37.379 22.51,34.739 "
           id="polygon399" />
        <polygon
           points="18.474,19.322 19.249,21.935 22.195,21.137 22.195,21.537 19.249,22.335 18.474,19.722 "
           id="polygon401" />
      </g>
      <polygon
         points="7.692,40.023 4.562,40.522 3.819,35.859 9.447,34.963 "
         id="polygon405" />
      <polygon
         points="11.051,30.161 3.113,31.425 2.371,26.763 5.795,26.218 "
         id="polygon407" />
      <polygon
         points="4.94,23.337 9.815,21.891 11.15,26.391 7.478,27.481 5.795,26.218 "
         id="polygon409" />
      <polygon
         points="24.357,29.11 18.149,30.793 17.181,27.225 23.389,25.541 "
         id="polygon411" />
      <polygon
         points="5.795,26.218 2.371,26.763 1.966,24.22 4.94,23.337 "
         id="polygon413" />
      <polygon
         points="18.474,19.322 19.249,21.935 18.637,23.191 14.667,24.368 13.599,20.769 "
         id="polygon415" />
      <polygon
         points="25.551,33.515 22.51,34.339 21.087,33.437 20.218,30.232 24.357,29.11 "
         id="polygon417" />
      <polygon
         points="22.195,21.137 23.389,25.541 18.216,26.944 17.712,25.087 19.249,21.935 "
         id="polygon419" />
      <polygon
         points="22.51,34.339 25.551,33.515 26.24,36.056 23.354,36.979 "
         id="polygon421" />
      <polygon
         points="19.249,21.935 18.474,19.322 21.462,18.436 22.195,21.137 "
         id="polygon423" />
    </g>
    <g
       stroke="#67635c"
       stroke-width="0.068"
       stroke-linecap="butt"
       id="g431">
      <g
         fill="#99948a"
         stroke="#1a1917"
         stroke-width="0.068"
         id="g429">
        <g
           fill="#1a1917"
           stroke="#1a1917"
           stroke-width="0.068"
           stroke-linejoin="round"
           id="g427" />
      </g>
    </g>
    <g
       stroke="#67635c"
       stroke-width="0.068"
       stroke-linecap="butt"
       id="g437">
      <g
         fill="#99948a"
         stroke="#1a1917"
         stroke-width="0.068"
         id="g435">
        <g
           fill="#1a1917"
           stroke="#1a1917"
           stroke-width="0.068"
           stroke-linejoin="round"
           id="g433" />
      </g>
    </g>
    <g
       stroke="#67635c"
       stroke-width="0.068"
       stroke-linecap="butt"
       id="g443">
      <g
         fill="#99948a"
         stroke="#1a1917"
         stroke-width="0.068"
         id="g441">
        <g
           fill="#1a1917"
           stroke="#1a1917"
           stroke-width="0.068"
           stroke-linejoin="round"
           id="g439" />
      </g>
    </g>
    <g
       stroke="#67635c"
       stroke-width="0.068"
       stroke-linecap="butt"
       id="g449">
      <g
         fill="#99948a"
         stroke="#1a1917"
         stroke-width="0.068"
         id="g447">
        <g
           fill="#1a1917"
           stroke="#1a1917"
           stroke-width="0.068"
           stroke-linejoin="round"
           id="g445" />
      </g>
    </g>
    <g
       stroke="#67635c"
       stroke-width="0.068"
       stroke-linecap="butt"
       id="g455">
      <g
         fill="#99948a"
         stroke="#1a1917"
         stroke-width="0.068"
         id="g453">
        <g
           fill="#1a1917"
           stroke="#1a1917"
           stroke-width="0.068"
           stroke-linejoin="round"
           id="g451" />
      </g>
    </g>
    <g
       stroke="#67635c"
       stroke-width="0.068"
       stroke-linecap="butt"
       id="g461">
      <g
         fill="#99948a"
         stroke="#1a1917"
         stroke-width="0.068"
         id="g459">
        <g
           fill="#1a1917"
           stroke="#1a1917"
           stroke-width="0.068"
           stroke-linejoin="round"
           id="g457" />
      </g>
    </g>
    <g
       stroke="#67635c"
       stroke-width="0.068"
       stroke-linecap="butt"
       id="g467">
      <g
         fill="#99948a"
         stroke="#1a1917"
         stroke-width="0.068"
         id="g465">
        <g
           fill="#1a1917"
           stroke="#1a1917"
           stroke-width="0.068"
           stroke-linejoin="round"
           id="g463" />
      </g>
    </g>
    <g
       stroke="#67635c"
       stroke-width="0.068"
       stroke-linecap="butt"
       id="g473">
      <g
         fill="#99948a"
         stroke="#1a1917"
         stroke-width="0.068"
         id="g471">
        <g
           fill="#1a1917"
           stroke="#1a1917"
           stroke-width="0.068"
           stroke-linejoin="round"
           id="g469" />
      </g>
    </g>
    <g
       stroke="#67635c"
       stroke-width="0.068"
       stroke-linecap="butt"
       id="g479">
      <g
         fill="#99948a"
         stroke="#1a1917"
         stroke-width="0.068"
         id="g477">
        <g
           fill="#1a1917"
           stroke="#1a1917"
           stroke-width="0.068"
           stroke-linejoin="round"
           id="g475" />
      </g>
    </g>
    <g
       stroke="#67635c"
       stroke-width="0.068"
       stroke-linecap="butt"
       id="g485">
      <g
         fill="#99948a"
         stroke="#1a1917"
         stroke-width="0.068"
         id="g483">
        <g
           fill="#1a1917"
           stroke="#1a1917"
           stroke-width="0.068"
           stroke-linejoin="round"
           id="g481" />
      </g>
    </g>
    <g
       stroke="#67635c"
       stroke-width="0.068"
       stroke-linecap="butt"
       id="g491">
      <g
         fill="#99948a"
         stroke="#1a1917"
         stroke-width="0.068"
         id="g489">
        <g
           fill="#1a1917"
           stroke="#1a1917"
           stroke-width="0.068"
           stroke-linejoin="round"
           id="g487" />
      </g>
    </g>
    <g
       id="labels"
       style="font-style:normal;font-variant:normal;font-weight:normal;font-stretch:normal;font-size:3px;line-height:normal;font-family:'IM Fell Great Primer', serif"
       fill="#1a1917">
      <g
         id="-"
         transform="translate(-1.981,-1.169)">
        <text
           text-anchor="middle"
           dominant-baseline="middle"
           textLength="3.1547062"
           stroke="#ccc5b8"
           stroke-width="0.273"
           id="text493"
           lengthAdjust="spacing">-</text>
        <text
           text-anchor="middle"
           dominant-baseline="middle"
           textLength="3.1547062"
           id="text495"
           lengthAdjust="spacing">-</text>
      </g>
      <g
         id="g502"
         transform="translate(-8.447,-8.702)">
        <text
           text-anchor="middle"
           dominant-baseline="middle"
           textLength="4.1621904"
           stroke="#ccc5b8"
           stroke-width="0.273"
           id="text498"
           lengthAdjust="spacing">-</text>
        <text
           text-anchor="middle"
           dominant-baseline="middle"
           textLength="4.1621904"
           id="text500"
           lengthAdjust="spacing">-</text>
      </g>
      <g
         id="g508"
         transform="translate(3.401,-20.365)">
        <text
           text-anchor="middle"
           dominant-baseline="middle"
           textLength="6.3761096"
           stroke="#ccc5b8"
           stroke-width="0.273"
           id="text504"
           lengthAdjust="spacing">-</text>
        <text
           text-anchor="middle"
           dominant-baseline="middle"
           textLength="6.3761096"
           id="text506"
           lengthAdjust="spacing">-</text>
      </g>
      <g
         id="g514"
         transform="translate(6.248,15.542)">
        <text
           text-anchor="middle"
           dominant-baseline="middle"
           textLength="6.2893648"
           stroke="#ccc5b8"
           stroke-width="0.273"
           id="text510"
           lengthAdjust="spacing">-</text>
        <text
           text-anchor="middle"
           dominant-baseline="middle"
           textLength="6.2893648"
           id="text512"
           lengthAdjust="spacing">-</text>
      </g>
    </g>
    <g
       id="markers"
       pinned="true" />
  </g>
</svg>
